PathFileType	4	(X/Y/Z)	path1_05_0-945.trc
DataRate	CameraRate	NumFrames	NumMarkers	Units	OrigDataRate	OrigDataStartFrame	OrigNumFrames
30	30	5	22	m	30	472	945
Frame#	Time	Hip			RHip			RKnee			RAnkle			RBigToe			RSmallToe			RHeel			LHip			LKnee			LAnkle			LBigToe			LSmallToe			LHeel			Neck			Head			Nose			RShoulder			RElbow			RWrist			LShoulder			LElbow			LWrist		
		X1	Y1	Z1	X2	Y2	Z2	X3	Y3	Z3	X4	Y4	Z4	X5	Y5	Z5	X6	Y6	Z6	X7	Y7	Z7	X8	Y8	Z8	X9	Y9	Z9	X10	Y10	Z10	X11	Y11	Z11	X12	Y12	Z12	X13	Y13	Z13	X14	Y14	Z14	X15	Y15	Z15	X16	Y16	Z16	X17	Y17	Z17	X18	Y18	Z18	X19	Y19	Z19	X20	Y20	Z20	X21	Y21	Z21	X22	Y22	Z22
473	15.766666666666667	-1.6775117935326875	0.816759515555307	0.25414152515492905	-1.6784423061690867	0.8035269948833125	0.3388200813700318	-1.699008872371625	0.47580971057444943	0.30208620783288465	-1.7246923342621656	0.1216544221516589	0.30759492286001766	-1.5661720404173725	0.03628761785707071	0.3357636566486867	-1.594153728794265	0.03417302798166416	0.3913914851568234	-1.7626990280777168	0.0591540629260637	0.3068205760584553	-1.6618520745046612	0.799711285068166	0.18600599174240104	-1.659389317121049	0.4486660329335316	0.17810812608737162	-1.6932800605824014	0.10837642783705353	0.17668142851308277	-1.5518962068560893	0.01616211329528385	0.1317455564395473	-1.5548766686450624	0.028574361399155493	0.10029437756667453	-1.7771206402681616	0.018793534378788054	0.18350260434609314	-1.6680982640913837	1.4485018880478995	0.21767799889874126	-1.593746634884419	1.7287140083128856	0.2694389207473987	-1.5323558637257033	1.5942452633909674	0.2609656202906225	-1.7270436846800796	1.3550859300597644	0.36299943636027227	-1.7097335013815491	1.0544354309610717	0.39386784714387885	-1.6100845034177873	0.85571743843976	0.464060061849828	-1.696036575679293	1.3352632335547208	0.13266332709290246	-1.6882623681174396	1.04246033510953	0.10858990100610852	-1.5967324316985636	0.8591810472449922	0.060757819803373525
474	15.8	-1.6764302333615042	0.8174167257410702	0.25514860730985206	-1.678594999677393	0.798749150453704	0.3406670934913881	-1.6990231224160057	0.4720497684299525	0.305747107806473	-1.7259266850075725	0.12168426873283028	0.31078089999595093	-1.5674354372901071	0.03537770278852808	0.3352676897174819	-1.5965603338552081	0.03210125681756334	0.3908531925221631	-1.7640032121734934	0.06193016014409499	0.3099612366009258	-1.6621625566373734	0.7934618429864243	0.19000155985610395	-1.6639974562823865	0.44449235489693395	0.18035802293638073	-1.69454754373508	0.1067671823036656	0.17706510758620603	-1.5528459728672601	0.012080398251783985	0.1359028115220556	-1.5594013660456658	0.02719049115947888	0.09978175887830175	-1.7769952482873426	0.018987004479983687	0.1822837641506588	-1.6670870361547685	1.4502688082694632	0.21600346457615544	-1.5968555069028711	1.7223330964608154	0.2718117683171073	-1.5318181835253062	1.593059964905708	0.26736395944067454	-1.7278928954275201	1.3554324748393374	0.36113575935909464	-1.7068401208408515	1.0541156404857526	0.3949707584016825	-1.6124099715623317	0.8584046048090176	0.4618192425591816	-1.6925293906826844	1.3350610358003168	0.1322379729398424	-1.687627273081548	1.0415860863725923	0.10958312868559898	-1.5962278904002953	0.861233652838849	0.06016659545483971
475	15.833333333333334	-1.6765770621761948	0.8171089015440484	0.25460730779619656	-1.6783684551414828	0.7994752233220817	0.3388104328490343	-1.6994463946865568	0.4728148817210264	0.30359657390352385	-1.7241911333947326	0.12339463433087668	0.31052993841588744	-1.5682588878005488	0.034547811270082114	0.33448036718100543	-1.5961461793415874	0.03517180914911633	0.3927899082764944	-1.7618194180672595	0.06467409024489325	0.31186222495262883	-1.660379717752192	0.7948398706821594	0.1859181482067052	-1.6625551457741237	0.4438017033122326	0.17827023479479662	-1.696066847718895	0.10672362149739252	0.17847862453646518	-1.535377094235351	0.017513322947879176	0.152813499375941	-1.553573709606345	0.028186124109914508	0.10080253993643856	-1.7758530287670844	0.019225499595065663	0.18190250008931066	-1.6666384004751045	1.4508819825542627	0.21868146930939572	-1.5963508084022668	1.722314605892383	0.26418122683380535	-1.5297722942615715	1.5928036580697023	0.26352355248282666	-1.7276528375144218	1.355051487992011	0.36295219444538834	-1.7087344877989539	1.055475682354387	0.39477602548237645	-1.612267581356947	0.8588775692125863	0.4634704419261993	-1.692992233297565	1.3339478091972063	0.130840014795826	-1.6892683352136166	1.0423651560772493	0.10917583985980994	-1.5975637404989915	0.8618078154685785	0.060337281790483005
476	15.866666666666667	-1.6750410455330362	0.8168735273190373	0.2546951044109531	-1.6767759176170451	0.797918971429751	0.33972380260200663	-1.6992595936987895	0.47046103461053784	0.3034901791457616	-1.7238901688661636	0.12233275971384049	0.3105381422696513	-1.5670806656102876	0.03233425375798661	0.3332919787744592	-1.5956370110945324	0.03230630572701315	0.39152374805121887	-1.7603295464676307	0.06411808641434466	0.3109149123429486	-1.662746970443786	0.7931853274818814	0.18683369163818353	-1.6645087267215048	0.44360700957915333	0.17913654115201996	-1.6939299668757433	0.10903632849692316	0.1777709748111662	-1.5339873670639452	0.018046954048410297	0.15253279079801824	-1.55441113254974	0.02760896790010093	0.10096788579904707	-1.7758021231958585	0.020136278147752443	0.18265318112585263	-1.6662723148053689	1.450806078778514	0.21878450983489614	-1.5977184386669654	1.7222787291621706	0.25855321879608556	-1.529938544048744	1.5926465107190675	0.26235801388104685	-1.7263503280286732	1.35447159795501	0.36365172537389384	-1.7068029909631035	1.0549360770697198	0.3967990570342019	-1.6112742557438875	0.8594104742704607	0.46367262648483987	-1.6944441662289262	1.333504946527558	0.13356241593072882	-1.688091780827356	1.042337533943944	0.10871282799380057	-1.5970972867175866	0.8609628590842043	0.060238795316629984
477	15.9	-1.6761761498557972	0.8175794535382822	0.25541526816197635	-1.6778600300562707	0.802045881462975	0.3391282527640691	-1.6989276355202911	0.47444208811112215	0.3028210444753027	-1.724605618009089	0.12506062919510566	0.30888563844779926	-1.5681920408234784	0.0341397548569258	0.3360903092572493	-1.5981913067966445	0.03297624044743849	0.3923320123888325	-1.7629306244013865	0.06442735039593185	0.3063520336997632	-1.661810426823133	0.7981226133459762	0.18676420167774996	-1.6591942523192669	0.4469854799040996	0.17714984274871393	-1.6942126942906068	0.10989956562072882	0.17717369892294216	-1.53207869443369	0.01991007915944104	0.15300321963745983	-1.552428217238222	0.02773740686569062	0.10047305591612002	-1.7767092661159591	0.020690418141561532	0.1821796279278667	-1.6673717574664892	1.4484071065928565	0.21668528546826835	-1.5921213511161583	1.7256118453750324	0.26684723210945493	-1.5303391786367362	1.5909730778739464	0.26028518055852656	-1.7259196332836038	1.3536494996290616	0.36554112115431714	-1.7090167255685964	1.055119848333175	0.395927824870991	-1.6126446181134138	0.8578033694538749	0.46403024612723454	-1.6962173234807085	1.334279181961455	0.13456595865784754	-1.6907271656141203	1.0425101927868339	0.10953117081562744	-1.596010568758863	0.8612502509120421	0.0589064040856072
